<svg xmlns="http://www.w3.org/2000/svg" viewBox="0 0 72 72">
  
<g transform="matrix(3,0,0,3,0,0)"><g>
    <path d="M3.59,17.25A2.27,2.27,0,0,0,4,21.75H20A2.22,2.22,0,0,0,21.68,21a2.31,2.31,0,0,0,.56-1.53,2.17,2.17,0,0,0-1.83-2.25Z" style="fill: #000000"></path>
    <path d="M20.2,16.25a.51.51,0,0,0,.49-.4l1.2-6.11a2.26,2.26,0,1,0-1.61-.55L17.85,12a.54.54,0,0,1-.37.17.48.48,0,0,1-.37-.17L13.05,7.54a2.75,2.75,0,1,0-2.1,0L6.9,12a.5.5,0,0,1-.38.17.55.55,0,0,1-.37-.18L3.76,9.16a2.25,2.25,0,1,0-1.58.58l1.15,6.1a.49.49,0,0,0,.49.41Z" style="fill: #000000"></path>
  </g></g></svg>