<?xml version="1.0" standalone="no"?>
<!DOCTYPE svg PUBLIC "-//W3C//DTD SVG 20010904//EN"
 "http://www.w3.org/TR/2001/REC-SVG-20010904/DTD/svg10.dtd">
<svg version="1.0" xmlns="http://www.w3.org/2000/svg"
 width="225.000000pt" height="225.000000pt" viewBox="0 0 225.000000 225.000000"
 preserveAspectRatio="xMidYMid meet">

<g transform="translate(0.000000,225.000000) scale(0.100000,-0.100000)"
fill="#000000" stroke="none">
<path d="M970 1604 c-84 -146 -159 -272 -164 -280 -9 -12 -59 30 -264 216
-138 127 -252 226 -252 220 0 -5 41 -232 90 -503 50 -272 90 -497 90 -500 0
-4 295 -7 655 -7 360 0 655 3 655 7 0 3 41 228 90 500 50 271 90 498 90 503 0
6 -113 -93 -252 -220 -139 -126 -255 -226 -259 -222 -4 4 -78 129 -164 277
-87 149 -158 271 -159 272 -1 1 -71 -118 -156 -263z"/>
<path d="M470 505 c0 -65 14 -99 47 -114 34 -15 1182 -15 1216 0 33 15 47 49
47 114 l0 55 -655 0 -655 0 0 -55z"/>
</g>
</svg>
